# xmcd
#
# Track frame offsets: 
#        150
#        16912
#        34655
#        47071
#        66792
#        90946
#        108396
#        124850
#        149847
#        168086
#        181601
#        199537
#        213251
#        230544
#
# Disc length: 3392 seconds
#
# Revision: 1
# Processed by: cddbd v1.4PL0 Copyright (c) Steve Scherf et al.
# Submitted via: ExactAudioCopy v0.90b4
#
DISCID=b40d3e0e
DTITLE=Annie Major-Matte - Dissidence
DYEAR=2003
DGENRE=
TTITLE0=Feu De Paille
TTITLE1=Tout Ou Rien
TTITLE2=Le Café
TTITLE3=Je Plane Sans Lois
TTITLE4=la Guerre
TTITLE5=L'Autre Monde
TTITLE6=Baby Lilly
TTITLE7=Solange
TTITLE8=9
TTITLE9=La Cage D'Or
TTITLE10=Dis-Le Moi
TTITLE11=Ma Folie Douce Amère
TTITLE12=Le Chien
TTITLE13=Peu De Temps
EXTD=
EXTT0=
EXTT1=
EXTT2=
EXTT3=
EXTT4=
EXTT5=
EXTT6=
EXTT7=
EXTT8=
EXTT9=
EXTT10=
EXTT11=
EXTT12=
EXTT13=
PLAYORDER=
